<?xml version="1.0" encoding="UTF-8" standalone="no"?>
<!-- Created by IT-Bot SRL with Inkscape (http://www.inkscape.org/) -->

<svg
   width="256"
   height="256"
   viewBox="0 0 256 256"
   version="1.1"
   id="svg1"
   xmlns="http://www.w3.org/2000/svg"
   xmlns:svg="http://www.w3.org/2000/svg">
  <defs
     id="defs1" />
  <text
     xml:space="preserve"
     style="font-style:normal;font-weight:normal;font-size:40.0001px;line-height:1.25;font-family:sans-serif;fill:#000000;fill-opacity:1;stroke:none;stroke-width:1"
     x="126.08753"
     y="107.54525"
     id="text1"><tspan
       id="tspan1"
       style="stroke-width:1" /></text>
  <path
     id="text2"
     style="font-size:24.4121px;line-height:1.25;stroke-width:1.18467"
     d="M 123.00203,2.3513575e-6 H 133.553 V 46.785199 q 14.1605,0.971802 25.12795,5.41431 11.10627,4.303683 23.32319,14.1605 l 40.26025,-39.427282 7.21909,7.357909 -39.70495,39.704946 q 10.13448,13.188703 14.29933,23.462013 5.27548,13.327535 5.55314,26.238575 h 46.64637 v 9.57917 h -46.50754 q -2.63775,26.23859 -19.85247,48.17348 l 39.56612,40.39909 -7.91324,6.94142 -39.28845,-39.14963 q -13.6052,9.99565 -23.73967,14.02167 -10.13448,3.88721 -24.98912,5.55314 v 46.7852 h -10.55097 v -46.7852 q -15.54879,-2.08242 -26.238579,-6.3861 -10.550967,-4.30369 -21.657249,-12.77223 L 34.290633,228.6505 27.210381,221.57026 66.776496,181.86531 Q 57.613817,170.20371 52.893649,158.81978 48.173481,147.43584 46.646368,132.72002 H -3.456544e-7 v -9.57916 H 46.646368 Q 47.895823,108.42505 52.477164,97.457595 57.058503,86.351312 66.637667,74.689726 L 27.210381,34.84595 l 6.663767,-7.913223 40.53791,39.149636 q 14.021676,-9.717999 24.8503,-13.882854 10.967452,-4.303683 23.739672,-5.41431 z M 199.08003,127.99985 q 0,-29.431625 -20.9631,-50.255901 -20.82427,-20.824272 -50.2559,-20.824272 -29.431645,0 -50.255909,20.824272 -20.824275,20.824276 -20.824275,50.255901 0,29.43164 20.824275,50.39475 20.824264,20.82426 50.255909,20.82426 29.43163,0 50.2559,-20.82426 20.9631,-20.96311 20.9631,-50.39475 z" />
</svg>
